<?xml version="1.0" standalone="no"?>
<!DOCTYPE svg PUBLIC "-//W3C//DTD SVG 20010904//EN"
 "http://www.w3.org/TR/2001/REC-SVG-20010904/DTD/svg10.dtd">
<svg version="1.0" xmlns="http://www.w3.org/2000/svg"
 width="300.000000pt" height="300.000000pt" viewBox="0 0 300.000000 300.000000"
 preserveAspectRatio="xMidYMid meet">
<metadata>
Created by potrace 1.11, written by Peter Selinger 2001-2013
</metadata>
<g transform="translate(0.000000,300.000000) scale(0.100000,-0.100000)"
fill="#000000" stroke="none">
<path d="M794 2551 c-8 -5 -10 -26 -4 -41 6 -16 4 -140 -3 -140 -4 0 -3 -9 3
-20 8 -15 8 -20 -1 -20 -8 0 -8 -4 1 -15 10 -12 9 -15 -6 -16 -18 0 -18 -1 1
-9 11 -5 14 -9 6 -9 -11 -1 -11 -4 -1 -16 9 -11 9 -15 1 -15 -7 0 -9 -5 -6
-10 11 -18 11 -120 0 -120 -7 0 -7 -3 0 -8 11 -8 16 -42 6 -42 -4 0 -7 -9 -7
-20 0 -11 5 -20 11 -20 5 0 3 -5 -5 -10 -8 -5 -10 -10 -5 -10 6 0 10 -33 10
-80 0 -44 -4 -80 -9 -80 -5 0 -3 -7 4 -15 10 -12 9 -15 -6 -16 -18 0 -18 -1 1
-9 11 -5 14 -9 6 -9 -11 -1 -11 -4 -1 -16 9 -11 9 -15 1 -15 -7 0 -9 -5 -6
-10 11 -18 11 -120 0 -120 -7 0 -7 -3 0 -8 11 -8 16 -42 6 -42 -4 0 -7 -9 -7
-20 0 -11 5 -20 11 -20 5 0 3 -5 -5 -10 -8 -5 -10 -10 -5 -10 6 0 10 -33 10
-80 0 -44 -4 -80 -9 -80 -5 0 -3 -7 4 -15 10 -12 9 -15 -6 -16 -18 0 -18 -1 1
-9 11 -5 14 -9 6 -9 -11 -1 -11 -4 -1 -16 9 -11 9 -15 1 -15 -7 0 -9 -5 -6
-10 11 -18 11 -120 0 -120 -7 0 -7 -3 0 -8 12 -8 16 -42 6 -42 -10 0 -8 -31 3
-48 4 -6 3 -12 -3 -12 -6 0 -8 -7 -4 -16 12 -31 8 -79 -7 -92 -8 -8 -10 -11
-3 -8 6 4 14 2 18 -4 3 -5 1 -10 -6 -10 -8 0 -8 -4 1 -15 9 -11 9 -15 1 -15
-7 0 -9 -5 -5 -11 11 -18 10 -109 -1 -112 -6 -2 -4 -10 4 -20 8 -11 9 -17 3
-17 -6 0 -9 -7 -5 -16 12 -31 8 -79 -7 -92 -8 -8 -10 -11 -3 -8 6 4 14 2 18
-4 3 -5 1 -10 -6 -10 -8 0 -8 -4 1 -15 9 -11 9 -15 1 -15 -7 0 -9 -4 -6 -10
10 -16 12 -80 2 -80 -5 0 -4 -7 3 -15 10 -12 10 -15 -1 -15 -11 -1 -10 -4 2
-13 24 -18 218 -15 230 4 5 8 4 15 -2 17 -6 3 -6 9 2 18 9 11 9 14 -1 14 -9 0
-9 4 1 17 11 13 11 17 2 20 -7 3 -13 9 -13 14 0 6 4 8 8 5 4 -2 8 4 8 15 0 10
-3 19 -6 19 -10 0 -5 95 5 102 6 5 5 8 -3 8 -10 0 -10 5 -2 20 8 15 8 20 -1
20 -8 0 -7 5 2 17 11 13 11 17 2 20 -7 3 -13 9 -13 14 0 6 4 8 8 5 4 -2 8 4 8
15 0 10 -3 19 -6 19 -8 0 -4 95 4 108 4 7 2 12 -5 12 -8 0 -7 5 2 17 8 9 9 14
2 10 -7 -5 -9 0 -6 13 3 11 10 17 17 14 6 -3 3 1 -6 9 -18 14 -25 33 -10 23 4
-2 8 4 8 15 0 10 -4 19 -8 19 -11 0 -6 23 7 33 6 4 5 10 -4 16 -11 7 -11 9 0
14 10 4 10 6 2 6 -7 1 -13 6 -13 12 0 5 6 7 13 3 9 -6 9 -4 -1 8 -10 13 -10
17 0 21 10 4 10 7 -1 15 -11 8 -11 10 0 15 10 4 10 6 2 6 -7 1 -13 6 -13 12 0
5 6 7 13 3 9 -6 9 -4 -1 8 -10 13 -10 17 0 22 10 5 10 7 -1 12 -11 5 -11 8 0
15 10 6 11 9 2 9 -7 0 -13 5 -13 11 0 5 6 7 13 3 9 -6 9 -4 -1 8 -10 13 -10
17 0 21 10 4 10 7 -1 15 -11 8 -11 10 0 15 10 4 10 6 2 6 -7 1 -13 6 -13 12 0
5 4 8 8 5 4 -2 8 4 8 15 0 10 -4 19 -9 19 -5 0 -3 8 4 17 8 9 9 14 2 10 -7 -5
-9 0 -6 13 3 11 10 17 17 14 6 -3 3 1 -6 9 -18 14 -25 33 -10 23 4 -2 8 4 8
15 0 10 -3 19 -6 19 -10 0 -5 95 5 102 6 5 5 8 -3 8 -10 0 -10 5 -2 20 8 15 8
20 -1 20 -8 0 -7 5 2 17 11 13 11 17 2 20 -7 3 -13 9 -13 14 0 6 4 8 8 5 4 -2
8 4 8 15 0 10 -3 19 -6 19 -8 0 -4 125 5 140 5 8 4 11 -3 7 -6 -5 -8 0 -5 13
3 11 10 17 17 14 6 -3 3 1 -6 9 -18 14 -25 33 -10 23 4 -2 8 4 8 15 0 10 -3
19 -6 19 -9 0 -6 32 3 47 4 6 3 14 -3 18 -13 8 -13 25 1 25 5 0 7 -4 4 -10 -3
-5 0 -10 8 -10 13 0 56 -43 58 -58 0 -4 7 -11 15 -15 8 -5 11 -13 8 -19 -5 -8
-1 -9 10 -5 10 4 15 3 11 -3 -3 -6 -2 -10 3 -10 5 0 12 -9 15 -21 4 -14 10
-18 19 -13 7 4 10 4 6 0 -4 -5 2 -17 13 -29 10 -11 19 -27 19 -34 0 -7 4 -13
10 -13 5 0 8 -27 7 -60 -1 -35 2 -60 8 -60 6 0 2 -7 -7 -14 -18 -14 -25 -32
-9 -21 6 3 9 -36 7 -97 -1 -59 3 -109 9 -117 8 -12 6 -13 -6 -9 -9 4 -16 1
-16 -8 0 -7 4 -11 8 -8 4 2 7 -43 6 -101 -1 -64 2 -105 8 -105 6 0 2 -7 -7
-14 -18 -14 -25 -32 -9 -21 6 3 9 -36 7 -97 -1 -59 3 -109 9 -117 8 -12 6 -13
-6 -9 -9 4 -16 1 -16 -8 0 -7 4 -11 8 -8 4 2 7 -43 6 -101 -1 -64 2 -105 8
-105 6 0 2 -7 -7 -14 -18 -14 -25 -32 -9 -21 6 3 9 -36 7 -97 -1 -59 3 -109 9
-117 8 -12 6 -13 -6 -9 -9 4 -16 1 -16 -8 0 -7 4 -11 9 -8 4 3 8 -9 8 -26 0
-17 -4 -29 -9 -26 -5 4 -4 -5 2 -18 7 -13 15 -22 19 -20 5 3 8 -1 8 -8 0 -9 3
-9 10 2 7 12 13 13 28 4 12 -8 24 -9 34 -3 11 6 19 5 23 -1 3 -5 12 -10 18
-10 7 0 6 4 -3 10 -11 7 0 9 36 6 41 -3 52 -1 62 14 6 11 8 21 3 24 -10 6 -7
138 3 154 4 7 1 12 -6 12 -9 0 -9 3 2 10 10 6 11 10 3 10 -7 0 -13 5 -13 11 0
5 6 7 13 3 9 -6 9 -5 0 7 -10 12 -10 18 -1 27 9 9 9 12 0 12 -10 0 -10 5 -2
20 7 14 7 20 0 20 -5 0 -10 5 -10 11 0 5 6 7 13 3 9 -5 9 -4 0 6 -9 9 -9 19
-2 33 6 11 7 17 2 14 -11 -7 -10 294 2 312 5 10 4 12 -3 7 -14 -9 -15 3 -3 23
6 9 5 24 0 39 -6 16 -6 29 1 37 8 9 8 15 0 20 -7 4 -7 13 1 27 6 11 7 18 2 15
-10 -7 -10 104 1 121 4 7 2 12 -6 12 -9 0 -9 3 2 10 10 6 11 10 3 10 -7 0 -13
5 -13 11 0 5 5 7 11 3 8 -4 8 -1 1 12 -10 20 -9 85 3 104 3 5 0 10 -7 10 -9 0
-9 3 2 10 10 6 11 10 3 10 -7 0 -13 5 -13 11 0 5 6 7 13 3 9 -6 9 -5 0 7 -10
12 -10 18 -1 27 9 9 9 12 0 12 -10 0 -10 5 -2 20 8 14 8 20 0 20 -8 0 -8 6 0
20 8 15 8 20 -2 20 -9 0 -9 3 2 10 10 6 11 10 3 10 -7 0 -13 5 -13 11 0 5 5 7
11 3 8 -4 8 -1 1 12 -10 20 -9 85 3 104 3 5 0 10 -7 10 -9 0 -9 3 2 10 10 6
11 10 3 10 -7 0 -13 5 -13 11 0 5 6 7 13 3 9 -6 9 -5 0 7 -10 12 -10 18 -1 27
9 9 9 12 0 12 -10 0 -10 5 -2 20 7 14 7 20 0 20 -5 0 -10 5 -10 11 0 5 6 7 13
3 9 -5 9 -4 0 6 -9 9 -9 19 -2 33 6 11 7 17 2 14 -10 -6 -10 263 0 281 5 7 3
12 -3 12 -8 0 -8 6 0 20 7 14 7 20 0 20 -5 0 -10 5 -10 11 0 5 6 7 13 3 7 -5
6 0 -3 11 -12 15 -12 17 -1 10 11 -6 12 -5 5 6 -5 8 -9 19 -10 24 0 6 -2 15
-2 21 -2 11 -205 14 -217 3 -12 -12 -14 -49 -2 -49 7 0 4 -7 -5 -14 -18 -13
-26 -32 -9 -22 5 3 8 -44 8 -104 0 -61 -3 -107 -8 -104 -5 3 -7 10 -4 15 4 5
2 9 -4 9 -5 0 -32 22 -60 49 -27 27 -52 46 -55 43 -3 -2 -8 3 -12 12 -3 9 -13
16 -21 16 -8 0 -11 5 -8 10 3 6 1 10 -5 10 -19 0 -69 43 -63 54 3 6 3 8 -2 4
-9 -9 -65 19 -65 32 0 6 -5 10 -11 10 -7 0 -33 15 -59 34 -26 19 -51 31 -56
27z"/>
<path d="M1717 2532 c-3 -4 -45 -7 -95 -6 -76 0 -91 -2 -101 -18 -8 -13 -8
-18 0 -18 8 0 8 -5 -1 -15 -10 -12 -10 -15 1 -15 11 0 11 -2 -1 -10 -9 -6 -11
-13 -5 -17 14 -11 17 -33 4 -33 -8 0 -8 -4 0 -14 9 -11 9 -15 -1 -19 -8 -4 -9
-8 -3 -14 6 -4 10 -15 10 -23 0 -8 -4 -18 -10 -22 -6 -5 -4 -12 5 -18 12 -8
13 -11 1 -19 -7 -5 -9 -11 -4 -14 11 -7 11 -37 -1 -55 -4 -7 -2 -12 6 -12 9 0
9 -3 -2 -10 -8 -5 -10 -10 -4 -10 12 0 12 -28 1 -47 -4 -6 -1 -14 5 -16 10 -4
10 -6 0 -6 -8 -1 -10 -6 -5 -13 11 -18 10 -42 -2 -50 -6 -5 -5 -8 3 -8 10 0
10 -5 2 -20 -8 -15 -8 -20 1 -20 8 0 8 -4 -1 -15 -10 -12 -10 -15 1 -15 12 0
12 -2 0 -9 -8 -5 -9 -11 -3 -15 10 -6 7 -49 -4 -67 -2 -4 2 -10 8 -12 10 -4
10 -6 0 -6 -8 -1 -10 -6 -6 -13 11 -18 12 -48 2 -48 -5 0 -6 -6 -1 -12 11 -18
11 -30 1 -50 -6 -12 -5 -18 2 -18 8 0 8 -6 0 -20 -8 -15 -8 -20 1 -20 8 0 8
-4 -1 -15 -10 -12 -10 -15 1 -15 12 0 12 -2 0 -9 -8 -5 -9 -11 -3 -15 10 -6 7
-49 -4 -67 -2 -4 2 -10 8 -12 10 -4 10 -6 0 -6 -8 -1 -10 -6 -6 -13 11 -18 12
-48 2 -48 -5 0 -6 -6 -1 -12 11 -18 11 -30 1 -50 -6 -12 -5 -18 4 -18 9 0 9
-3 -2 -10 -8 -5 -10 -10 -4 -10 12 0 12 -28 1 -47 -4 -6 -1 -14 5 -16 10 -4
10 -6 0 -6 -8 -1 -10 -6 -6 -13 12 -19 14 -58 3 -58 -6 0 -7 -6 -2 -12 10 -17
10 -39 1 -60 -5 -10 -4 -20 2 -23 8 -5 7 -11 -1 -21 -9 -11 -9 -14 0 -14 7 0
9 -5 6 -10 -4 -6 -12 -8 -18 -4 -7 3 -5 0 3 -8 17 -15 20 -40 5 -51 -6 -4 -4
-11 5 -17 12 -8 13 -11 1 -19 -7 -5 -9 -11 -4 -14 11 -7 11 -37 -1 -55 -4 -7
-2 -12 6 -12 9 0 9 -3 -2 -10 -8 -5 -10 -10 -4 -10 12 0 12 -28 1 -47 -4 -6
-1 -14 5 -16 10 -4 10 -6 0 -6 -8 -1 -10 -6 -5 -13 11 -18 10 -42 -2 -50 -6
-5 -5 -8 3 -8 10 0 10 -5 2 -20 -8 -15 -8 -20 1 -20 8 0 8 -4 -1 -15 -10 -12
-10 -15 1 -15 12 0 12 -2 0 -9 -8 -5 -9 -11 -3 -15 10 -6 7 -50 -4 -68 -3 -4
1 -8 8 -8 10 0 10 -2 -1 -9 -7 -5 -9 -11 -4 -14 15 -9 8 -52 -8 -49 -9 1 -8
-2 3 -11 10 -8 15 -17 11 -21 -4 -3 -7 -15 -8 -26 -2 -18 17 -26 48 -21 4 1
17 -4 29 -10 15 -8 19 -8 13 0 -7 13 35 9 56 -5 8 -4 9 -3 5 4 -8 13 28 12 40
-1 4 -4 12 -7 18 -7 6 0 4 5 -4 10 -11 8 -5 9 21 7 33 -4 38 -1 53 30 9 19 20
32 25 29 5 -4 7 3 4 14 -3 12 1 22 11 26 9 3 13 10 10 15 -3 5 0 9 7 9 7 0 10
3 6 6 -3 3 3 15 13 27 11 11 17 24 14 29 -3 4 1 11 10 14 8 3 17 12 20 20 4
10 1 13 -7 9 -6 -4 -3 1 7 9 11 9 16 16 12 16 -5 0 -1 11 8 25 9 14 14 25 11
25 -3 0 0 6 7 14 7 8 18 11 23 8 6 -3 4 2 -4 11 -12 15 -9 20 9 19 3 0 6 11 7
25 0 14 7 29 15 34 7 5 10 9 5 9 -4 0 -1 13 7 29 9 16 12 31 9 35 -4 3 -1 6 5
6 7 0 11 3 10 8 -1 4 4 23 11 42 17 44 19 51 24 75 3 11 9 19 14 18 5 -1 10 4
10 12 0 8 -5 11 -10 8 -6 -4 -7 -1 -1 8 9 14 10 19 13 40 0 5 7 7 14 3 8 -5 8
-2 -2 9 -8 11 -9 17 -3 17 6 0 9 7 6 15 -4 8 -2 15 4 15 6 0 9 12 7 26 -2 19
1 24 13 19 12 -4 12 -3 3 9 -7 9 -8 22 -3 37 5 13 7 30 4 38 -3 8 0 11 7 7 7
-5 9 -1 5 9 -4 9 2 25 12 36 17 19 17 20 0 13 -16 -6 -17 -4 -7 15 7 12 9 26
6 31 -3 6 -2 10 2 10 5 0 9 12 10 28 2 67 3 73 16 66 9 -5 9 -4 0 6 -9 9 -9
19 -2 33 8 15 8 18 -1 12 -9 -6 -10 -1 -4 16 4 13 8 38 8 54 1 17 5 33 11 37
6 5 4 8 -5 8 -13 0 -13 1 0 10 13 9 13 10 0 10 -13 0 -13 1 0 10 13 8 13 10 1
10 -11 0 -10 4 5 16 10 8 14 13 8 10 -14 -7 -13 126 1 136 7 5 6 8 0 8 -6 0
-11 18 -11 39 0 22 3 38 6 36 4 -2 7 2 7 10 0 8 -4 12 -9 9 -5 -3 -8 7 -6 23
2 18 -1 27 -9 25 -7 -1 -13 3 -13 9 0 5 -5 7 -11 4 -16 -11 -69 -12 -69 -2 0
4 -5 5 -11 1 -14 -8 -149 -11 -149 -4 0 3 -9 6 -19 6 -11 0 -17 -5 -14 -10 4
-5 -1 -7 -10 -3 -11 4 -14 2 -10 -9 3 -8 -1 -14 -8 -14 -11 0 -11 -2 -1 -8 14
-10 12 -73 -3 -84 -6 -5 -5 -8 3 -8 6 0 12 -5 12 -11 0 -5 -6 -7 -12 -3 -10 6
-9 3 0 -8 8 -9 11 -30 9 -46 -5 -29 -4 -30 34 -28 21 1 36 -1 33 -5 -2 -4 5
-10 16 -14 21 -7 25 -16 13 -29 -6 -6 -9 -38 -12 -134 -1 -24 -5 -31 -13 -26
-9 5 -9 2 1 -9 11 -14 11 -20 0 -34 -12 -15 -12 -16 1 -8 13 8 13 7 1 -8 -11
-14 -11 -17 0 -17 12 0 12 -2 0 -9 -7 -5 -10 -14 -7 -20 4 -6 3 -11 -2 -11 -5
0 -8 -12 -6 -27 1 -15 -3 -34 -9 -42 -10 -12 -9 -13 3 -6 9 5 7 -1 -5 -15 -11
-13 -14 -20 -7 -16 6 4 12 2 12 -3 0 -6 -4 -11 -10 -11 -5 0 -7 -6 -4 -14 3
-8 1 -17 -4 -20 -6 -3 -8 -15 -5 -26 3 -11 1 -20 -4 -20 -6 0 -9 -11 -8 -25 2
-14 0 -25 -4 -25 -4 0 -8 -12 -9 -27 -1 -15 -8 -30 -15 -35 -8 -5 -9 -8 0 -8
8 0 8 -7 -2 -27 -8 -16 -15 -35 -17 -43 -2 -8 -10 -21 -18 -28 -8 -8 -9 -11
-2 -7 15 8 16 -11 1 -20 -6 -4 -8 -13 -5 -21 6 -14 -9 -20 -17 -6 -2 4 -2 1 0
-7 5 -21 -19 -91 -30 -84 -5 3 -6 -4 -3 -18 7 -24 7 -24 -9 -4 -16 19 -16 19
-10 -7 4 -15 3 -37 -2 -50 -6 -18 -9 -11 -13 37 -4 46 -1 63 10 73 8 8 10 11
4 8 -7 -3 -14 5 -16 19 -3 14 -2 25 3 25 4 0 4 14 -1 30 -7 25 -6 30 8 30 11
0 13 3 6 8 -14 9 -25 52 -14 52 5 0 5 14 0 30 -5 17 -6 30 -2 30 4 0 7 47 7
104 0 57 -3 102 -7 99 -5 -2 -8 1 -8 6 0 6 4 11 9 11 6 0 6 12 1 30 -5 17 -5
30 0 30 5 0 5 13 0 30 -5 19 -5 30 1 30 6 0 5 8 -1 20 -6 12 -7 20 -1 20 6 0
6 11 1 30 -5 17 -5 30 0 30 5 0 5 13 0 30 -6 20 -5 30 2 30 6 0 5 7 -3 17 -10
12 -11 17 -2 20 8 3 9 13 3 34 -5 16 -5 29 0 29 5 0 5 13 0 30 -5 19 -5 30 1
30 6 0 5 8 -1 20 -6 12 -7 20 -1 20 6 0 6 11 1 30 -5 17 -5 30 0 30 4 0 5 12
1 28 -5 19 -3 31 8 40 9 8 11 11 4 8 -8 -5 -12 20 -15 89 -2 59 1 95 7 95 6 0
3 5 -5 10 -11 7 -11 10 -2 10 10 0 10 5 2 20 -7 14 -7 20 0 21 5 1 16 2 23 3
6 1 20 -5 30 -13 15 -12 18 -13 15 -1 -2 11 22 14 132 16 74 1 137 2 140 3 3
0 5 37 5 80 0 44 -2 78 -5 76 -3 -2 -4 14 -2 35 l4 37 -39 -1 c-21 -1 -46 2
-57 7 -13 6 -16 6 -12 -2 4 -6 0 -11 -9 -11 -10 0 -13 5 -9 12 5 8 3 8 -7 2
-19 -12 -82 -12 -91 1 -5 6 -8 6 -8 -2 0 -7 -5 -13 -11 -13 -5 0 -7 5 -3 12 5
7 3 8 -7 2 -18 -11 -59 -12 -83 -1 -13 6 -16 6 -12 -2 4 -6 0 -11 -9 -11 -9 0
-13 5 -10 10 3 6 4 10 1 10 -3 0 -7 -3 -9 -8z m273 -696 c0 -3 -4 -8 -10 -11
-5 -3 -10 -1 -10 4 0 6 5 11 10 11 6 0 10 -2 10 -4z"/>
<path d="M765 2440 c-3 -6 1 -7 9 -4 18 7 21 14 7 14 -6 0 -13 -4 -16 -10z"/>
<path d="M1047 2039 c7 -7 15 -10 18 -7 3 3 -2 9 -12 12 -14 6 -15 5 -6 -5z"/>
<path d="M1036 1633 c-6 -14 -5 -15 5 -6 7 7 10 15 7 18 -3 3 -9 -2 -12 -12z"/>
<path d="M765 840 c-3 -6 1 -7 9 -4 18 7 21 14 7 14 -6 0 -13 -4 -16 -10z"/>
<path d="M1036 673 c-6 -14 -5 -15 5 -6 7 7 10 15 7 18 -3 3 -9 -2 -12 -12z"/>
</g>
</svg>
